<?xml version="1.0" standalone="no"?><!DOCTYPE svg PUBLIC "-//W3C//DTD SVG 1.1//EN" "http://www.w3.org/Graphics/SVG/1.1/DTD/svg11.dtd"><svg t="1619170873512" class="icon" viewBox="0 0 1024 1024" version="1.1" xmlns="http://www.w3.org/2000/svg" p-id="1304" width="64" height="64" xmlns:xlink="http://www.w3.org/1999/xlink"><defs><style type="text/css"></style></defs><path d="M314.936889 373.76c5.423407-0.568889 14.336 104.599704 18.507852 98.759111 12.591407-17.787259 25.941333-58.064593 21.238518-102.930963-6.295704-59.619556-43.083852-104.599704-51.086222-103.765333-8.00237 0.83437-34.62637 52.489481-28.368593 112.109037 4.664889 44.600889 25.106963 81.464889 41.035852 96.407704 5.347556 5.006222-6.826667-100.010667-1.327407-100.579556zM129.403259 392.912593c5.006222-6.181926 92.311704 68.532148 92.122074 59.467851-0.606815-27.610074-17.256296-73.91763-55.371852-104.827259C115.408593 306.517333 44.980148 309.475556 37.546667 318.615704c-7.395556 9.140148 4.399407 78.620444 55.068444 119.694222 37.925926 30.72 85.864296 38.570667 113.019259 33.640296 9.102222-1.630815-81.389037-72.704-76.269037-79.037629zM177.303704 191.222519c6.902519-3.982222 61.667556 97.052444 64.739555 88.519111 9.329778-25.979259 10.353778-75.169185-14.184296-117.684149-32.616296-56.50963-99.365926-78.999704-109.605926-73.083259-10.202074 5.878519-24.082963 74.94163 8.533333 131.451259 24.38637 42.249481 66.332444 66.74963 93.411556 71.907556 9.102222 1.744593-49.910519-97.052444-42.856296-101.110518zM359.651556 124.245333c7.964444-0.417185 10.884741 114.422519 17.445925 108.240593 20.138667-18.925037 43.425185-62.27437 40.846223-111.312593C414.53037 56.054519 365.226667 5.688889 353.46963 6.295704c-11.757037 0.606815-55.523556 55.864889-52.110223 120.983703 2.578963 48.734815 28.823704 89.618963 50.593186 106.496 7.319704 5.688889-0.379259-109.112889 7.698963-109.530074zM567.258074 148.66963c7.736889 1.934222-23.096889 112.64-14.942815 108.619851 24.76563-12.174222 59.695407-46.838519 71.566222-94.473481 15.777185-63.29837-16.611556-125.876148-28.065185-128.720593-11.415704-2.844444-69.404444 37.167407-85.219555 100.465778-11.757037 47.369481 1.365333 94.132148 17.256296 116.622222 5.30963 7.585185 31.516444-104.448 39.405037-102.513777zM768.872296 209.654519c6.902519 3.982222-53.248 101.906963-44.297481 100.314074 27.154963-4.93037 70.276741-28.596148 94.814815-71.111112 32.616296-56.50963 18.735407-125.572741 8.495407-131.451259-10.202074-5.916444-76.98963 16.57363-109.605926 73.083259-24.38637 42.249481-24.651852 90.832593-15.54963 116.849778 3.034074 8.722963 59.088593-91.742815 66.142815-87.68474zM910.184296 350.966519c6.902519 3.982222-53.248 101.906963-44.297481 100.314074 27.154963-4.93037 70.276741-28.596148 94.814815-71.111112 32.616296-56.50963 18.735407-125.572741 8.495407-131.451259-10.202074-5.916444-76.98963 16.57363-109.605926 73.083259-24.38637 42.249481-24.651852 90.832593-15.54963 116.849778 3.034074 8.722963 59.088593-91.742815 66.142815-87.68474zM289.298963 584.135111c3.147852-4.475259 78.203259 50.669037 77.027556 44.069926-3.565037-20.100741-21.504-53.968593-54.120297-76.8-43.311407-30.340741-96.711111-28.823704-101.338074-22.186667-4.626963 6.599111 12.212148 57.268148 55.523556 87.608889 32.426667 22.71763 69.897481 28.823704 90.036148 25.524148 6.788741-1.137778-70.314667-53.665185-67.128889-58.216296zM465.313185 485.148444c5.006222 2.161778-30.90963 81.313185-24.803555 79.113482 18.545778-6.826667 47.028148-29.278815 61.553777-63.488 19.304296-45.435259 5.575111-94.738963-1.820444-97.848889-7.433481-3.185778-52.41363 21.200593-71.68 66.635852-14.411852 33.98163-11.757037 69.82163-3.944296 87.950222 2.654815 6.068148 35.574519-74.524444 40.694518-72.362667zM606.814815 363.975111c5.195852 0 3.147852 95.838815 7.661037 90.94637 13.653333-14.866963 30.264889-49.98637 30.264889-90.94637C644.740741 309.589333 614.475852 265.481481 606.814815 265.481481c-7.661037 0-37.925926 44.107852-37.925926 98.49363 0 40.732444 15.625481 75.927704 29.202963 90.94637 4.551111 5.044148 3.451259-90.94637 8.722963-90.94637z" fill="#F98800" p-id="1305"></path><path d="M581.594074 500.887704c5.195852-1.630815 28.596148 82.147556 31.857778 76.496592 9.822815-17.066667 17.180444-52.679111 6.333629-88.177777-14.411852-47.217778-56.623407-76.155259-64.32237-73.803852-7.698963 2.351407-26.510222 49.948444-12.060444 97.128296 10.808889 35.346963 35.877926 61.060741 53.513481 69.897481 5.95437 2.996148-20.631704-79.947852-15.322074-81.54074zM455.111111 288.123259c5.195852 0 3.147852 95.838815 7.661037 90.946371 13.653333-14.866963 30.264889-49.98637 30.264889-90.946371C493.037037 233.737481 462.772148 189.62963 455.111111 189.62963c-7.661037 0-37.925926 44.107852-37.925926 98.493629 0 40.732444 15.625481 75.927704 29.202963 90.946371 4.551111 5.044148 3.451259-90.94637 8.722963-90.946371zM823.523556 548.598519c2.88237 4.626963-71.945481 48.886519-65.687704 50.555259 19.076741 5.082074 55.371852 2.996148 86.85037-16.687408 41.870222-26.168889 58.898963-74.410667 54.613334-81.237333-4.247704-6.826667-55.068444-12.667259-96.938667 13.50163-31.326815 19.569778-49.682963 50.441481-53.665185 69.783703-1.327407 6.485333 71.86963-40.618667 74.827852-35.915851zM743.348148 674.740148c-1.782519 5.157926-83.285333-25.144889-80.630518-19.228444 8.040296 18.014815 32.464593 44.904296 67.621926 57.002666 46.648889 16.080593 94.852741-1.061926 97.469629-8.685037 2.654815-7.585185-24.803556-50.782815-71.49037-66.825481-34.891852-12.022519-70.46637-6.864593-87.988148 2.199704-5.916444 3.034074 76.8 30.302815 74.979555 35.536592zM732.539259 469.864296c4.702815 2.692741-40.580741 76.913778-34.285037 75.472593 19.228444-4.475259 50.289778-23.36237 68.873482-55.523556 24.651852-42.742519 17.066667-93.297778 10.088296-97.355852-6.97837-4.020148-54.613333 14.677333-79.265185 57.419852-18.469926 31.971556-20.176593 67.887407-14.639408 86.812445 1.896296 6.371556 44.411259-69.632 49.227852-66.825482z" fill="#F98800" p-id="1306"></path><path d="M341.333333 493.037037l105.547852 218.567111c70.352593 145.711407 70.352593 249.856 0 312.395852h174.990222c47.141926-118.328889 21.390222-222.435556-77.255111-312.395852S378.197333 548.788148 341.333333 493.037037zM770.768593 549.546667l-97.090371 58.633481c-64.739556 39.063704-90.263704 79.947852-76.61037 122.614519l-72.059259-66.93926c9.519407-43.994074 45.662815-70.921481 108.392296-80.858074 62.729481-9.898667 108.506074-21.048889 137.367704-33.450666z" fill="#794610" p-id="1307"></path></svg>